<mxfile host="app.diagrams.net" modified="2024-04-11T04:39:36.360Z" agent="Mozilla/5.0 (Windows NT 10.0; Win64; x64) AppleWebKit/537.36 (KHTML, like Gecko) Chrome/123.0.0.0 Safari/537.36 Edg/123.0.0.0" version="24.2.3" etag="LrZpdNEYVqY4UjyZnaib" type="github">
  <diagram name="第 1 页" id="5--eo8o_0G8xFEKXiVF4">
    <mxGraphModel>
      <root>
        <mxCell id="0" />
        <mxCell id="1" parent="0" />
      </root>
    </mxGraphModel>
  </diagram>
</mxfile>
